<svg xmlns="http://www.w3.org/2000/svg" xmlns:xlink="http://www.w3.org/1999/xlink" version="1.1" x="0px" y="0px" viewBox="0 0 512 640" enable-background="new 0 0 512 512" xml:space="preserve"><g><path d="M68.5,68.5v300h37.1v75l75.2-75h262.7v-300H68.5z M406,331H106V106h300V331z"/><path d="M209.2,199.8c15.5,0,28.2-12.6,28.2-28.2c0-15.5-12.6-28.1-28.2-28.1S181,156.1,181,171.7   C181,187.2,193.6,199.8,209.2,199.8z"/><path d="M302.9,199.8c15.5,0,28.2-12.6,28.2-28.2c0-15.5-12.6-28.1-28.2-28.1c-15.5,0-28.1,12.6-28.1,28.1   C274.8,187.2,287.4,199.8,302.9,199.8z"/><path d="M335.3,260.3l-26.4-26.4c-13.5,13.3-32.1,21.6-52.7,21.6c-20.6,0-39.2-8.4-52.9-21.7l-26.4,26.4   c20.4,20.3,48.4,32.8,79.3,32.8C286.9,292.9,314.9,280.6,335.3,260.3z"/></g><text x="0" y="527" fill="#000000" font-size="5px" font-weight="bold" font-family="'Helvetica Neue', Helvetica, Arial-Unicode, Arial, Sans-serif">Created by Creative Stall</text><text x="0" y="532" fill="#000000" font-size="5px" font-weight="bold" font-family="'Helvetica Neue', Helvetica, Arial-Unicode, Arial, Sans-serif">from the Noun Project</text></svg>