<svg xmlns="http://www.w3.org/2000/svg" xmlns:xlink="http://www.w3.org/1999/xlink" version="1.1" x="0px" y="0px" viewBox="0 0 512 640" enable-background="new 0 0 512 512" xml:space="preserve"><g><path d="M388.6,123.4C354.6,89.5,307.8,68.5,256,68.5s-98.6,21-132.6,54.9C89.5,157.4,68.5,204.3,68.5,256   c0,103.5,84,187.5,187.5,187.5c51.8,0,98.6-21,132.6-54.9c33.9-33.9,54.9-80.8,54.9-132.6S422.5,157.4,388.6,123.4z M256,406   c-82.7,0-150-67.3-150-150c0-82.7,67.3-150,150-150c82.7,0,150,67.3,150,150C406,338.7,338.7,406,256,406z"/><polygon points="218.5,285.7 175.5,242.7 149,269.2 218.5,338.7 344.3,212.9 317.7,186.4  "/></g><text x="0" y="527" fill="#000000" font-size="5px" font-weight="bold" font-family="'Helvetica Neue', Helvetica, Arial-Unicode, Arial, Sans-serif">Created by Creative Stall</text><text x="0" y="532" fill="#000000" font-size="5px" font-weight="bold" font-family="'Helvetica Neue', Helvetica, Arial-Unicode, Arial, Sans-serif">from the Noun Project</text></svg>