<svg width="100" height="100" viewBox="0 0 100 100" fill="none" xmlns="http://www.w3.org/2000/svg">
<path d="M63.2001 60.4001L81.0001 49.7001L79.0001 46.3001L60.3001 57.5001L52.8001 50.0001L77.4001 25.4001L74.6001 22.6001L50.0001 47.2001L42.5001 39.7001L49.0001 28.9001L45.6001 26.8001L39.6001 36.7001L31.3001 28.4001L0.100098 99.9001L71.5001 68.7001L63.2001 60.4001ZM7.9001 92.1001L14.4001 77.2001L22.8001 85.6001L7.9001 92.1001ZM26.7001 83.9001L16.1001 73.3001L20.5001 63.3001L36.7001 79.5001L26.7001 83.9001ZM40.6001 77.7001L22.2001 59.4001L26.6001 49.4001L50.6001 73.4001L40.6001 77.7001ZM28.3001 45.5001L32.7001 35.5001L64.6001 67.4001L54.6001 71.8001L28.3001 45.5001Z" fill="black"/>
<path d="M58.9671 3.78896L54.4272 11.4438L57.8676 13.4842L62.4075 5.82936L58.9671 3.78896Z" fill="black"/>
<path d="M26.1002 24.4001L34.0002 20.3001L41.9002 24.4001L40.4002 15.6001L46.7002 9.4001L38.0002 8.0001L34.0002 0.100098L30.0002 8.0001L21.2002 9.4001L27.5002 15.6001L26.1002 24.4001ZM32.7002 11.7001L34.0002 9.0001L35.3002 11.6001L38.2002 12.0001L36.1002 14.1001L36.6002 17.0001L34.0002 15.8001L31.4002 17.2001L31.9002 14.3001L29.8002 12.2001L32.7002 11.7001Z" fill="black"/>
<path d="M95.1003 70.1998L97.9003 61.7998L89.5003 64.5998L82.4003 59.2998L82.5003 68.1998L75.3003 73.3998L83.8003 75.9998L86.5003 84.4998L91.7003 77.2998L100.6 77.3998L95.1003 70.1998ZM89.4003 73.2998L87.7003 75.6998L86.8003 72.8998L84.0003 71.9998L86.4003 70.2998V67.2998L88.7003 68.9998L91.5003 68.0998L90.6003 70.8998L92.4003 73.2998H89.4003Z" fill="black"/>
<path d="M84.1003 19.0999L90.3003 25.3999L91.6003 16.5999L99.6003 12.5999L91.6003 8.5999L90.3003 -0.100098L84.1003 6.1999L75.3003 4.6999L79.4003 12.5999L75.3003 20.4999L84.1003 19.0999ZM85.5003 10.5999L87.6003 8.4999L88.1003 11.3999L90.7003 12.6999L88.0003 13.9999L87.6003 16.8999L85.5003 14.7999L82.6003 15.2999L84.0003 12.6999L82.6003 10.0999L85.5003 10.5999Z" fill="black"/>
<path d="M92 33C87.6 33 84 36.6 84 41C84 45.4 87.6 49 92 49C96.4 49 100 45.4 100 41C100 36.6 96.4 33 92 33ZM92 45C89.8 45 88 43.2 88 41C88 38.8 89.8 37 92 37C94.2 37 96 38.8 96 41C96 43.2 94.2 45 92 45Z" fill="black"/>
<path d="M52 26C55.3 26 58 23.3 58 20C58 16.7 55.3 14 52 14C48.7 14 46 16.7 46 20C46 23.3 48.7 26 52 26ZM52 18C53.1 18 54 18.9 54 20C54 21.1 53.1 22 52 22C50.9 22 50 21.1 50 20C50 18.9 50.9 18 52 18Z" fill="black"/>
<path d="M67.3752 12.8435L62.376 19.8413L65.6308 22.1665L70.63 15.1687L67.3752 12.8435Z" fill="black"/>
<path d="M73.4002 79.6997L69.5002 80.5997L68.6002 76.6997L64.7002 77.5997L65.6002 81.4997L61.7002 82.3997L62.6002 86.2997L66.5002 85.3997L67.4002 89.2997L71.3002 88.3997L70.4002 84.4997L74.3002 83.5997L73.4002 79.6997Z" fill="black"/>
<path d="M10.1999 27.9999L13.4999 25.7999L15.7999 29.0999L18.9999 26.7999L16.7999 23.4999L20.0999 21.2999L17.7999 17.9999L14.4999 20.1999L12.2999 16.8999L8.9999 19.1999L11.1999 22.4999L7.8999 24.7999L10.1999 27.9999Z" fill="black"/>
<path d="M75.9002 44.2997L77.2002 40.4997L81.0002 41.8997L82.3002 38.0997L78.5002 36.7997L79.9002 32.9997L76.1002 31.6997L74.8002 35.4997L71.0002 34.0997L69.7002 37.8997L73.5002 39.1997L72.1002 42.9997L75.9002 44.2997Z" fill="black"/>
</svg>
