<svg width="192" height="19" viewBox="0 0 192 19" fill="none" xmlns="http://www.w3.org/2000/svg">
<path d="M7.784 1.104C12.536 1.104 14.36 3.6 14.36 6.576C14.36 9.552 12.344 12.24 8.168 12.24H4.184V18H0.152V1.104H7.784ZM7.568 8.976C9.416 8.976 10.328 8.112 10.328 6.768C10.328 5.256 9.416 4.56 7.568 4.56H4.184V8.976H7.568ZM27.815 11.28C27.815 11.64 27.791 12.264 27.743 12.624H18.551C18.815 14.232 19.895 15.312 21.503 15.312C22.703 15.312 23.447 14.712 23.759 13.776H27.575C27.071 16.176 25.103 18.384 21.527 18.384C17.111 18.384 14.759 15.408 14.759 11.664C14.759 7.728 17.207 4.944 21.455 4.944C24.671 4.944 27.815 6.912 27.815 11.28ZM21.527 7.92C19.703 7.92 18.935 8.952 18.647 10.32H24.047C23.903 8.784 22.943 7.92 21.527 7.92ZM32.5081 8.04C32.7241 8.088 32.8441 7.872 32.9161 7.704C33.6601 6.024 34.3801 5.136 37.4281 5.136V8.832C33.9481 8.592 32.8201 9.864 32.8201 13.08V18H28.9801V5.328H32.8201V5.904C32.8201 6.336 32.6761 6.768 32.4841 7.152C32.2921 7.536 32.1481 7.968 32.5081 8.04ZM37.6106 13.584H41.4026C41.4266 14.568 42.0026 15.504 43.8266 15.504C45.4826 15.504 46.0586 15 46.0586 14.352C46.0586 13.584 44.9066 13.368 42.7706 13.128C38.3546 12.624 37.9946 10.392 37.9946 9.072C37.9946 6.936 40.0106 4.944 43.8026 4.944C46.8506 4.944 49.3226 6.336 49.5146 9.36H45.7226C45.6746 8.424 45.1226 7.824 43.7306 7.824C42.3626 7.824 41.8346 8.28 41.8346 8.904C41.8346 9.336 42.0986 9.744 44.1866 9.936C47.6906 10.272 49.8986 11.376 49.8986 14.112C49.8986 16.536 47.5946 18.384 43.7306 18.384C39.8426 18.384 37.7786 16.56 37.6106 13.584ZM57.3853 4.944C61.5613 4.944 64.1053 7.968 64.1053 11.664C64.1053 15.36 61.5613 18.384 57.3853 18.384C53.2093 18.384 50.6653 15.36 50.6653 11.664C50.6653 7.968 53.2093 4.944 57.3853 4.944ZM57.3853 15.12C59.2813 15.12 60.2653 13.536 60.2653 11.664C60.2653 9.792 59.2813 8.208 57.3853 8.208C55.4893 8.208 54.5053 9.792 54.5053 11.664C54.5053 13.536 55.4893 15.12 57.3853 15.12ZM73.3734 4.944C76.1094 4.944 77.9334 6.72 77.9334 10.32V18H74.0934V11.856C74.0934 9 73.4454 8.208 72.0774 8.208C70.5174 8.208 69.1014 10.2 69.1014 13.128V18H65.2614V5.328H69.1014V5.928C69.1014 6.504 68.9814 6.912 68.7894 7.296C68.5974 7.68 68.3574 8.16 68.6694 8.28C68.9574 8.4 69.0774 8.112 69.1734 7.92C69.7734 6.648 71.1894 4.944 73.3734 4.944ZM79.0949 14.616C79.0949 11.76 81.3509 10.704 84.0869 10.536C86.3429 10.392 87.9509 10.536 87.9269 9.456C87.9029 8.736 87.5189 7.824 85.7669 7.824C84.0389 7.824 83.4629 8.592 83.2709 9.552H79.4789C79.9109 6.168 83.0309 4.944 85.8629 4.944C88.8629 4.944 91.7669 5.904 91.7669 10.992V18H87.9269V17.352C87.9269 16.968 88.0229 16.632 88.1909 16.296C88.3829 15.888 88.5989 15.504 88.3349 15.384C88.0229 15.24 87.9269 15.528 87.8309 15.696C87.0389 17.256 85.6229 18.384 83.5109 18.384C80.9429 18.384 79.0949 16.728 79.0949 14.616ZM87.9269 11.856C87.3029 12.504 86.4149 12.552 84.6149 12.768C83.7269 12.864 82.9349 13.272 82.9349 14.352C82.9349 15.408 83.9429 15.864 84.9749 15.696C86.1269 15.504 87.9029 14.472 87.9269 11.856ZM93.8786 0.719999H97.7186V18H93.8786V0.719999ZM107.651 1.104C112.403 1.104 114.227 3.6 114.227 6.576C114.227 9.552 112.211 12.24 108.035 12.24H104.051V18H100.019V1.104H107.651ZM107.435 8.976C109.283 8.976 110.195 8.112 110.195 6.768C110.195 5.256 109.283 4.56 107.435 4.56H104.051V8.976H107.435ZM121.346 4.944C125.522 4.944 128.066 7.968 128.066 11.664C128.066 15.36 125.522 18.384 121.346 18.384C117.17 18.384 114.626 15.36 114.626 11.664C114.626 7.968 117.17 4.944 121.346 4.944ZM121.346 15.12C123.242 15.12 124.226 13.536 124.226 11.664C124.226 9.792 123.242 8.208 121.346 8.208C119.45 8.208 118.466 9.792 118.466 11.664C118.466 13.536 119.45 15.12 121.346 15.12ZM127.686 5.328H131.718L133.23 13.2C133.326 13.704 133.35 14.304 133.35 14.808C133.35 15.048 133.422 15.312 133.734 15.312C134.046 15.312 134.118 15.048 134.118 14.808C134.118 14.304 134.142 13.704 134.238 13.2L135.558 5.328H140.166L141.486 13.2C141.582 13.704 141.606 14.304 141.606 14.808C141.606 15.048 141.678 15.312 141.99 15.312C142.302 15.312 142.374 15.048 142.374 14.808C142.374 14.304 142.398 13.704 142.494 13.2L144.006 5.328H148.038L144.582 18H139.398L138.366 11.064C138.294 10.512 138.27 9.552 138.246 8.904C138.246 8.664 138.174 8.4 137.862 8.4C137.55 8.4 137.478 8.664 137.478 8.904C137.454 9.552 137.43 10.512 137.358 11.064L136.326 18H131.142L127.686 5.328ZM160.729 11.28C160.729 11.64 160.705 12.264 160.657 12.624H151.465C151.729 14.232 152.809 15.312 154.417 15.312C155.617 15.312 156.361 14.712 156.673 13.776H160.489C159.985 16.176 158.017 18.384 154.441 18.384C150.025 18.384 147.673 15.408 147.673 11.664C147.673 7.728 150.121 4.944 154.369 4.944C157.585 4.944 160.729 6.912 160.729 11.28ZM154.441 7.92C152.617 7.92 151.849 8.952 151.561 10.32H156.961C156.817 8.784 155.857 7.92 154.441 7.92ZM165.422 8.04C165.638 8.088 165.758 7.872 165.83 7.704C166.574 6.024 167.294 5.136 170.342 5.136V8.832C166.862 8.592 165.734 9.864 165.734 13.08V18H161.894V5.328H165.734V5.904C165.734 6.336 165.59 6.768 165.398 7.152C165.206 7.536 165.062 7.968 165.422 8.04ZM182.822 18L181.622 14.352H174.806L173.606 18H169.382L175.526 1.104H180.902L187.046 18H182.822ZM175.886 11.088H180.542L178.886 6.072C178.67 5.448 178.646 4.776 178.622 4.032C178.622 3.792 178.502 3.6 178.214 3.6C177.926 3.6 177.83 3.792 177.83 4.032C177.806 4.776 177.758 5.448 177.542 6.072L175.886 11.088ZM191.848 18H187.816V1.104H191.848V18Z" fill="#F5F5F5"/>
</svg>
