<svg width="375" height="375" viewBox="0 0 375 375" fill="none" xmlns="http://www.w3.org/2000/svg">
<path d="M320.1 54.9C286.1 21 239.3 0 187.5 0C135.7 0 88.9 21 54.9 54.9C21 88.9 0 135.8 0 187.5C0 291 84 375 187.5 375C239.3 375 286.1 354 320.1 320.1C354 286.2 375 239.3 375 187.5C375 135.7 354 88.9 320.1 54.9ZM187.5 337.5C104.8 337.5 37.5 270.2 37.5 187.5C37.5 104.8 104.8 37.5 187.5 37.5C270.2 37.5 337.5 104.8 337.5 187.5C337.5 270.2 270.2 337.5 187.5 337.5Z" fill="black"/>
<path d="M93.823 168.726L93.7523 206.274L168.776 206.203L168.706 281.227H206.324L206.253 206.203H281.206L281.277 168.656L206.253 168.726V93.7729H168.776V168.726H93.823Z" fill="black"/>
</svg>
