<svg xmlns="http://www.w3.org/2000/svg" xmlns:xlink="http://www.w3.org/1999/xlink" version="1.1" x="0px" y="0px" viewBox="0 0 512 640" enable-background="new 0 0 512 512" xml:space="preserve"><path d="M387.3,237.3c-6.6,0-12.8,1.1-18.6,3.4v-97.4h-97.2c2.1-5.8,3.2-12.2,3.2-18.8c0-31-25.1-56.1-56.1-56.1  s-56.1,25.1-56.1,56.1c0,6.6,1.1,12.9,3.2,18.8H68.6V252c9.9-9,23.1-14.6,37.5-14.6c31,0,56.1,25.1,56.1,56.1s-25.1,56.1-56.1,56.1  c-14.4,0-27.6-5.6-37.5-14.6v108.6h300.2v-97.4c5.8,2.2,12,3.4,18.6,3.4c31.1,0,56.1-25.1,56.1-56.1S418.5,237.3,387.3,237.3z"/><text x="0" y="527" fill="#000000" font-size="5px" font-weight="bold" font-family="'Helvetica Neue', Helvetica, Arial-Unicode, Arial, Sans-serif">Created by Creative Stall</text><text x="0" y="532" fill="#000000" font-size="5px" font-weight="bold" font-family="'Helvetica Neue', Helvetica, Arial-Unicode, Arial, Sans-serif">from the Noun Project</text></svg>