<svg xmlns="http://www.w3.org/2000/svg" xmlns:xlink="http://www.w3.org/1999/xlink" version="1.1" x="0px" y="0px" viewBox="0 0 17 21.25" style="enable-background:new 0 0 17 17;" xml:space="preserve"><path d="M15.5,9.2h-0.7V4.8c0-0.5-0.4-1-1-1h-1.1L13.8,2c0.3-0.5,0.1-1.1-0.3-1.4C12.9,0.4,12.3,0.5,12,1l-1.7,2.9H6.7L5,1  C4.7,0.5,4.1,0.4,3.6,0.6C3.1,0.9,3,1.5,3.2,2l1.1,1.8H3.2c-0.5,0-1,0.5-1,1v4.3H1.5c-0.6,0-1,0.4-1,1c0,0.6,0.4,1,1,1h0.7v4.3  c0,0.5,0.5,1,1,1h10.5c0.5,0,1-0.5,1-1v-4.3h0.7c0.6,0,1-0.4,1-1C16.5,9.6,16.1,9.2,15.5,9.2z M5.3,8.3c0-0.6,0.4-1,1-1  c0.6,0,1,0.4,1,1c0,0.6-0.4,1-1,1C5.8,9.3,5.3,8.9,5.3,8.3z M9.7,13H7.3c-0.6,0-1-0.4-1-1c0-0.6,0.4-1,1-1h2.4c0.6,0,1,0.4,1,1  C10.7,12.6,10.3,13,9.7,13z M10.7,9.3c-0.6,0-1-0.4-1-1c0-0.6,0.4-1,1-1c0.6,0,1,0.4,1,1C11.7,8.9,11.2,9.3,10.7,9.3z"/><text x="0" y="32" fill="#000000" font-size="5px" font-weight="bold" font-family="'Helvetica Neue', Helvetica, Arial-Unicode, Arial, Sans-serif">Created by Creative Stall</text><text x="0" y="37" fill="#000000" font-size="5px" font-weight="bold" font-family="'Helvetica Neue', Helvetica, Arial-Unicode, Arial, Sans-serif">from the Noun Project</text></svg>