<svg width="308" height="279" viewBox="0 0 308 279" fill="none" xmlns="http://www.w3.org/2000/svg">
<path d="M12.3014 140.6C10.4014 144.2 9.30137 148.4 9.30137 152.8L9.30137 160.6C9.30137 175 21.0014 186.7 35.4014 186.7L99.7014 186.7C99.6014 186.8 99.6014 186.9 99.5014 187C90.2014 197.3 80.7014 208 77.6014 222.7C76.4014 228.4 76.2014 234.3 76.9014 240.1C77.7014 247.7 79.7014 253.7 83.0014 259.9C84.2014 263.2 86.0014 266.5 88.9014 269.4C92.4014 273.9 97.6014 276.9 103.701 278.1C110.201 279.3 116.801 278.3 122.201 275.2C122.201 275.2 122.201 275.2 122.301 275.2C122.901 274.8 123.501 274.5 124.101 274.1C124.101 274.1 124.201 274.1 124.201 274C124.201 274 124.201 274 124.301 274C132.401 268.4 134.901 259.7 137.101 252C138.301 247.8 139.401 243.9 141.401 241C142.201 239.7 143.301 238.6 144.501 237.5C144.601 237.4 144.701 237.3 144.801 237.2C144.901 237.1 145.101 237 145.201 236.9C146.401 235.9 147.801 235 149.201 234.1C150.901 233 152.801 232 154.701 230.9C155.701 230.3 156.801 229.8 157.801 229.2L158.001 229.1C162.201 226.5 166.401 223.8 170.401 220.9C170.501 220.8 170.601 220.8 170.701 220.7C171.001 220.5 171.301 220.2 171.601 220C176.201 216.7 180.601 213.3 184.901 209.6C186.801 208 188.701 206.4 190.501 204.7C198.001 198.2 205.401 191.4 212.601 184.4C217.301 179.8 222.001 175.2 226.501 170.4L307.901 170.4L307.901 21.1001L229.501 21.1001C219.601 7.90006 203.901 5.19432e-05 187.201 5.04832e-05L187.101 5.04745e-05L104.601 4.32621e-05C104.201 4.32271e-05 103.701 4.92855e-05 103.301 0.100049L99.8014 0.100049C99.2014 0.100049 98.6014 4.27376e-05 98.0014 4.26851e-05L44.6014 3.80167e-05C30.2014 3.67579e-05 18.5014 11.7 18.5014 26.1L18.5014 33.9C18.5014 38.3 19.6014 42.5 21.6014 46.2C14.3014 50.8 9.40139 59.0001 9.40139 68.3001L9.40138 76.1C9.40138 80.5 10.5014 84.6 12.4014 88.3C5.00138 92.9 0.00138881 101.1 0.00138799 110.5L0.0013873 118.3C-0.0986135 127.7 4.90137 135.9 12.3014 140.6ZM26.1014 126.6C21.6014 126.6 17.9014 122.9 17.9014 118.4L17.9014 110.6C17.9014 106.1 21.6014 102.4 26.1014 102.4L35.5014 102.4L107.201 102.4L116.501 102.4C121.001 102.4 124.701 106.1 124.701 110.6L124.701 118.4C124.701 122.9 121.001 126.6 116.501 126.6L107.201 126.6L35.5014 126.6L26.1014 126.6ZM27.2014 76.2L27.2014 68.4C27.2014 63.9 30.9014 60.2 35.4014 60.2L44.5014 60.2001L97.9014 60.2001L107.101 60.2001C111.601 60.2001 115.301 63.9 115.301 68.4L115.301 76.2001C115.301 80.7001 111.601 84.4001 107.101 84.4001L35.4014 84.4C30.9014 84.4 27.2014 80.7 27.2014 76.2ZM187.101 18.0001C198.901 18.0001 210.001 24.0001 216.401 33.8001L216.401 155.2C213.501 158.2 210.601 161.3 207.601 164.3C207.301 164.6 207.001 164.9 206.701 165.2C205.601 166.3 204.401 167.5 203.301 168.6C202.601 169.3 201.801 170.1 201.101 170.8C200.301 171.5 199.601 172.3 198.801 173C197.501 174.2 196.301 175.4 195.001 176.6C194.701 176.9 194.401 177.1 194.101 177.4C189.101 182.1 184.001 186.7 178.801 191.2L178.701 191.3C177.001 192.8 175.301 194.3 173.601 195.7C169.601 199 165.501 202.2 161.301 205.3C161.001 205.5 160.801 205.7 160.501 205.9C160.401 206 160.301 206 160.301 206.1C156.601 208.7 152.701 211.2 148.801 213.6C147.801 214.1 146.901 214.7 145.901 215.2C144.001 216.3 142.001 217.4 140.001 218.6C137.101 220.4 134.301 222.3 131.701 224.7C129.701 226.5 127.801 228.6 126.301 231C122.901 236.1 121.301 241.8 119.901 246.8C118.301 252.3 117.001 257.1 114.001 259.2C113.801 259.3 113.601 259.5 113.301 259.6C110.401 261.1 105.701 260.1 102.401 257.4C101.301 255.7 100.301 254.1 99.5014 252.7C98.9014 250.4 98.7014 247.5 98.5014 243.8C98.4014 242 98.3014 240.2 98.1014 238.3L98.1014 238.1C97.7014 234.1 97.8014 230.1 98.5014 226.2C100.701 216 107.601 207.5 115.001 198.4C123.401 188.1 132.101 177.4 135.201 162.8C136.101 158.5 136.301 154.4 136.501 150.5C136.601 148.4 136.701 146.4 136.901 144.5C139.401 124.6 153.401 107.9 172.601 102C177.301 100.5 180.001 95.5001 178.501 90.8001C177.301 87.0001 173.801 84.5 169.901 84.5C169.001 84.5 168.101 84.6001 167.201 84.9001C157.101 88.0001 148.001 93.4001 140.501 100.4C138.401 95.4001 134.801 91.2001 130.201 88.4001C132.101 84.8001 133.201 80.6001 133.201 76.2001L133.201 68.4C133.201 59.1 128.301 50.9001 121.001 46.3001C122.901 42.6001 124.101 38.5001 124.101 34.1001L124.101 26.3001C124.101 23.5001 123.601 20.7001 122.801 18.2001L187.101 18.2001L187.101 18.0001ZM27.2014 160.5L27.2014 152.7C27.2014 148.2 30.9014 144.5 35.4014 144.5L107.101 144.5C111.601 144.5 115.301 148.2 115.301 152.7L115.301 160.5C115.301 165 111.601 168.7 107.101 168.7L35.4014 168.7C30.9014 168.8 27.2014 165.1 27.2014 160.5ZM235.301 39.0001L289.901 39.0001L289.901 152.4L235.201 152.4L235.301 39.0001ZM36.4014 26.1C36.4014 21.6 40.1014 17.9 44.6014 17.9L84.3014 17.9C84.7014 17.9 85.0014 18 85.4014 18L99.0014 18C103.001 18.5 106.201 22 106.201 26.1L106.201 33.9C106.201 38.4 102.501 42.1 98.0014 42.1L44.6014 42.1C40.1014 42.1 36.4014 38.4 36.4014 33.9L36.4014 26.1Z" fill="black"/>
</svg>
