<svg width="308" height="279" viewBox="0 0 308 279" fill="none" xmlns="http://www.w3.org/2000/svg">
<path d="M295.6 137.993C297.5 134.393 298.6 130.193 298.6 125.793L298.6 117.993C298.6 103.593 286.9 91.8929 272.5 91.8929L208.2 91.8929C208.3 91.7929 208.3 91.6929 208.4 91.5929C217.7 81.2929 227.2 70.5929 230.3 55.8929C231.5 50.1929 231.7 44.2929 231 38.4929C230.2 30.8929 228.2 24.8929 224.9 18.6929C223.7 15.3929 221.9 12.0929 219 9.19292C215.5 4.69292 210.3 1.69292 204.2 0.492921C197.7 -0.707078 191.1 0.292925 185.7 3.39293C185.7 3.39293 185.7 3.39293 185.6 3.39293C185 3.79293 184.4 4.09292 183.8 4.49292C183.8 4.49292 183.7 4.49292 183.7 4.59292C183.7 4.59292 183.7 4.59292 183.6 4.59292C175.5 10.1929 173 18.8929 170.8 26.5929C169.6 30.7929 168.5 34.6929 166.5 37.5929C165.7 38.8929 164.6 39.9929 163.4 41.0929C163.3 41.1929 163.2 41.2929 163.1 41.3929C163 41.4929 162.8 41.5929 162.7 41.6929C161.5 42.6929 160.1 43.5929 158.7 44.4929C157 45.5929 155.1 46.5929 153.2 47.6929C152.2 48.2929 151.1 48.7929 150.1 49.3929L149.9 49.4929C145.7 52.0929 141.5 54.7929 137.5 57.6929C137.4 57.7929 137.3 57.7929 137.2 57.8929C136.9 58.0929 136.6 58.3929 136.3 58.5929C131.7 61.8929 127.3 65.2929 123 68.9929C121.1 70.5929 119.2 72.1929 117.4 73.8929C109.9 80.3929 102.5 87.1929 95.3 94.1929C90.6 98.7929 85.9 103.393 81.4 108.193L1.89171e-05 108.193L4.50215e-05 257.493L78.4 257.493C88.3 270.693 104 278.593 120.7 278.593L120.8 278.593L203.3 278.593C203.7 278.593 204.2 278.593 204.6 278.493L208.1 278.493C208.7 278.493 209.3 278.593 209.9 278.593L263.3 278.593C277.7 278.593 289.4 266.893 289.4 252.493L289.4 244.693C289.4 240.293 288.3 236.093 286.3 232.393C293.6 227.793 298.5 219.593 298.5 210.293L298.5 202.493C298.5 198.093 297.4 193.993 295.5 190.293C302.9 185.693 307.9 177.493 307.9 168.093L307.9 160.293C308 150.893 303 142.693 295.6 137.993ZM281.8 151.993C286.3 151.993 290 155.693 290 160.193L290 167.993C290 172.493 286.3 176.193 281.8 176.193L272.4 176.193L200.7 176.193L191.4 176.193C186.9 176.193 183.2 172.493 183.2 167.993L183.2 160.193C183.2 155.693 186.9 151.993 191.4 151.993L200.7 151.993L272.4 151.993L281.8 151.993ZM280.7 202.393L280.7 210.193C280.7 214.693 277 218.393 272.5 218.393L263.4 218.393L210 218.393L200.8 218.393C196.3 218.393 192.6 214.693 192.6 210.193L192.6 202.393C192.6 197.893 196.3 194.193 200.8 194.193L272.5 194.193C277 194.193 280.7 197.893 280.7 202.393ZM120.8 260.593C109 260.593 97.9 254.593 91.5 244.793L91.5 123.393C94.4 120.393 97.3 117.293 100.3 114.293C100.6 113.993 100.9 113.693 101.2 113.393C102.3 112.293 103.5 111.093 104.6 109.993C105.3 109.293 106.1 108.493 106.8 107.793C107.6 107.093 108.3 106.293 109.1 105.593C110.4 104.393 111.6 103.193 112.9 101.993C113.2 101.693 113.5 101.493 113.8 101.193C118.8 96.4929 123.9 91.8929 129.1 87.3929L129.2 87.2929C130.9 85.7929 132.6 84.2929 134.3 82.8929C138.3 79.5929 142.4 76.3929 146.6 73.2929C146.9 73.0929 147.1 72.8929 147.4 72.6929C147.5 72.5929 147.6 72.5929 147.6 72.4929C151.3 69.8929 155.2 67.3929 159.1 64.9929C160.1 64.4929 161 63.8929 162 63.3929C163.9 62.2929 165.9 61.1929 167.9 59.9929C170.8 58.1929 173.6 56.2929 176.2 53.8929C178.2 52.0929 180.1 49.9929 181.6 47.5929C185 42.4929 186.6 36.7929 188 31.7929C189.6 26.2929 190.9 21.4929 193.9 19.3929C194.1 19.2929 194.3 19.0929 194.6 18.9929C197.5 17.4929 202.2 18.4929 205.5 21.1929C206.6 22.8929 207.6 24.4929 208.4 25.8929C209 28.1929 209.2 31.0929 209.4 34.7929C209.5 36.5929 209.6 38.3929 209.8 40.2929L209.8 40.4929C210.2 44.4929 210.1 48.4929 209.4 52.3929C207.2 62.5929 200.3 71.0929 192.9 80.1929C184.5 90.4929 175.8 101.193 172.7 115.793C171.8 120.093 171.6 124.193 171.4 128.093C171.3 130.193 171.2 132.193 171 134.093C168.5 153.993 154.5 170.693 135.3 176.593C130.6 178.093 127.9 183.093 129.4 187.793C130.6 191.593 134.1 194.093 138 194.093C138.9 194.093 139.8 193.993 140.7 193.693C150.8 190.593 159.9 185.193 167.4 178.193C169.5 183.193 173.1 187.393 177.7 190.193C175.8 193.793 174.7 197.993 174.7 202.393L174.7 210.193C174.7 219.493 179.6 227.693 186.9 232.293C185 235.993 183.8 240.093 183.8 244.493L183.8 252.293C183.8 255.093 184.3 257.893 185.1 260.393L120.8 260.393L120.8 260.593ZM280.7 118.093L280.7 125.893C280.7 130.393 277 134.093 272.5 134.093L200.8 134.093C196.3 134.093 192.6 130.393 192.6 125.893L192.6 118.093C192.6 113.593 196.3 109.893 200.8 109.893L272.5 109.893C277 109.793 280.7 113.493 280.7 118.093ZM72.6 239.593L18 239.593L18 126.193L72.7 126.193L72.6 239.593ZM271.5 252.493C271.5 256.993 267.8 260.693 263.3 260.693L223.6 260.693C223.2 260.693 222.9 260.593 222.5 260.593L208.9 260.593C204.9 260.093 201.7 256.593 201.7 252.493L201.7 244.693C201.7 240.193 205.4 236.493 209.9 236.493L263.3 236.493C267.8 236.493 271.5 240.193 271.5 244.693L271.5 252.493Z" fill="black"/>
</svg>
